<?xml version="1.0" ?><svg xmlns="http://www.w3.org/2000/svg" viewBox="0 0 32 32"><g id="_19_message-dots-circle" data-name="19 message-dots-circle"><circle cx="16" cy="16" r="1.5"/><circle cx="10" cy="16" r="1.5"/><circle cx="22" cy="16" r="1.5"/><path d="M25.19,6.81A13,13,0,0,0,4.52,22.09L3.25,26.92a1.5,1.5,0,0,0,1.83,1.83l4.83-1.27A13,13,0,0,0,16,29c.38,0,.77,0,1.15-.05a13,13,0,0,0,8-22.14Zm1.73,10.57a11,11,0,0,1-16.38,8.16l-.35-.2L5.4,26.6l1.26-4.79-.2-.35a11,11,0,1,1,20.46-4.08Z"/></g></svg>